<svg width="377" height="56" viewBox="0 0 377 56" fill="none" xmlns="http://www.w3.org/2000/svg">
    <path d="M37.8641 55H30.7441V31.96H10.4241V25.8H30.7441V22.36C30.7441 19.2667 30.5841 17.0267 30.2641 15.64C29.9974 14.2533 29.0907 12.4667 27.5441 10.28C25.9974 8.04 23.3307 6.92 19.5441 6.92C11.7041 6.92 7.78406 11.8533 7.78406 21.72V55H0.664063V22.04C0.664063 15.2667 2.29073 9.98666 5.54406 6.2C8.85073 2.36 13.4107 0.439997 19.2241 0.439997C22.5307 0.439997 25.5174 1.16 28.1841 2.6C30.9041 3.98667 32.9574 5.77333 34.3441 7.96C35.7841 10.1467 36.7174 12.3067 37.1441 14.44C37.6241 16.52 37.8641 19.1867 37.8641 22.44V55ZM70.5384 18.68H76.9384V39.32C76.9384 44.28 75.4984 48.2533 72.6184 51.24C69.7384 54.2267 65.9251 55.72 61.1784 55.72C56.4851 55.72 52.6984 54.2267 49.8184 51.24C46.9384 48.2533 45.4984 44.28 45.4984 39.32V18.68H51.8984V37.8C51.8984 41.48 52.6984 44.3333 54.2984 46.36C55.8984 48.3867 58.1651 49.4 61.0984 49.4C62.7518 49.4 64.2451 49.0267 65.5784 48.28C66.9651 47.5333 68.1384 46.4133 69.0984 44.92C70.0584 43.3733 70.5384 40.8133 70.5384 37.24V18.68ZM119.93 1.64V35.32C119.93 41.3467 118.17 46.2533 114.65 50.04C111.13 53.8267 106.57 55.72 100.97 55.72C95.5836 55.72 91.0503 53.88 87.3703 50.2C83.7436 46.4667 81.9303 41.88 81.9303 36.44C81.9303 31.4267 83.7436 27.08 87.3703 23.4C90.997 19.72 95.317 17.88 100.33 17.88C104.224 17.88 107.744 19.1867 110.89 21.8V28.76C109.024 27.0533 107.344 25.88 105.85 25.24C104.357 24.5467 102.704 24.2 100.89 24.2C97.3703 24.2 94.437 25.4 92.0903 27.8C89.7436 30.2 88.5703 33.1867 88.5703 36.76C88.5703 40.3333 89.7436 43.3467 92.0903 45.8C94.4903 48.2 97.4236 49.4 100.89 49.4C105.21 49.4 108.384 47.9067 110.41 44.92C112.49 41.9333 113.53 38.3067 113.53 34.04V1.64H119.93ZM136.099 55H129.699V18.68H136.099V55ZM132.819 3.48C134.099 3.48 135.192 3.93333 136.099 4.84C137.006 5.74667 137.459 6.84 137.459 8.12C137.459 9.45333 137.006 10.5733 136.099 11.48C135.192 12.3867 134.099 12.84 132.819 12.84C131.486 12.84 130.366 12.3867 129.459 11.48C128.552 10.5733 128.099 9.45333 128.099 8.12C128.099 6.84 128.552 5.74667 129.459 4.84C130.366 3.93333 131.486 3.48 132.819 3.48ZM162.693 17.96C167.866 17.96 172.293 19.8267 175.973 23.56C179.653 27.2933 181.493 31.8 181.493 37.08C181.493 42.1467 179.653 46.52 175.973 50.2C172.293 53.88 167.866 55.72 162.693 55.72C157.359 55.72 152.826 53.88 149.093 50.2C145.359 46.52 143.493 42.0133 143.493 36.68C143.493 31.56 145.359 27.16 149.093 23.48C152.826 19.8 157.359 17.96 162.693 17.96ZM162.693 24.28C159.226 24.28 156.266 25.48 153.813 27.88C151.359 30.28 150.133 33.2133 150.133 36.68C150.133 40.3067 151.333 43.3467 153.733 45.8C156.186 48.2 159.226 49.4 162.853 49.4C166.053 49.4 168.853 48.1733 171.253 45.72C173.653 43.2667 174.853 40.3867 174.853 37.08C174.853 33.5067 173.653 30.4933 171.253 28.04C168.906 25.5333 166.053 24.28 162.693 24.28ZM219.476 1.64H226.836L212.756 49.4C211.529 53.4533 209.156 55.48 205.636 55.48C202.223 55.48 199.849 53.4 198.516 49.24L183.876 1.64H191.156L205.716 48.92L219.476 1.64ZM240.552 55H234.152V18.68H240.552V55ZM237.272 3.48C238.552 3.48 239.646 3.93333 240.552 4.84C241.459 5.74667 241.912 6.84 241.912 8.12C241.912 9.45333 241.459 10.5733 240.552 11.48C239.646 12.3867 238.552 12.84 237.272 12.84C235.939 12.84 234.819 12.3867 233.912 11.48C233.006 10.5733 232.552 9.45333 232.552 8.12C232.552 6.84 233.006 5.74667 233.912 4.84C234.819 3.93333 235.939 3.48 237.272 3.48ZM250.426 55V49.4H264.746H265.546C267.626 49.4 268.933 49.3733 269.466 49.32C269.999 49.2133 270.693 48.9467 271.546 48.52C272.453 48.04 272.906 47 272.906 45.4C272.906 43.5867 271.813 42.3067 269.626 41.56L256.106 36.76C253.546 35.8533 251.706 34.7333 250.586 33.4C249.519 32.0133 248.986 30.1733 248.986 27.88C248.986 21.7467 253.413 18.68 262.266 18.68H276.826V24.28H261.306C257.413 24.28 255.466 25.64 255.466 28.36C255.466 30.0667 256.586 31.2933 258.826 32.04L271.466 36.52C274.453 37.5333 276.533 38.7333 277.706 40.12C278.933 41.4533 279.546 43.2667 279.546 45.56C279.546 51.8533 275.519 55 267.466 55H250.426ZM294.927 55H288.527V18.68H294.927V55ZM291.647 3.48C292.927 3.48 294.021 3.93333 294.927 4.84C295.834 5.74667 296.287 6.84 296.287 8.12C296.287 9.45333 295.834 10.5733 294.927 11.48C294.021 12.3867 292.927 12.84 291.647 12.84C290.314 12.84 289.194 12.3867 288.287 11.48C287.381 10.5733 286.927 9.45333 286.927 8.12C286.927 6.84 287.381 5.74667 288.287 4.84C289.194 3.93333 290.314 3.48 291.647 3.48ZM321.521 17.96C326.694 17.96 331.121 19.8267 334.801 23.56C338.481 27.2933 340.321 31.8 340.321 37.08C340.321 42.1467 338.481 46.52 334.801 50.2C331.121 53.88 326.694 55.72 321.521 55.72C316.188 55.72 311.654 53.88 307.921 50.2C304.188 46.52 302.321 42.0133 302.321 36.68C302.321 31.56 304.188 27.16 307.921 23.48C311.654 19.8 316.188 17.96 321.521 17.96ZM321.521 24.28C318.054 24.28 315.094 25.48 312.641 27.88C310.188 30.28 308.961 33.2133 308.961 36.68C308.961 40.3067 310.161 43.3467 312.561 45.8C315.014 48.2 318.054 49.4 321.681 49.4C324.881 49.4 327.681 48.1733 330.081 45.72C332.481 43.2667 333.681 40.3867 333.681 37.08C333.681 33.5067 332.481 30.4933 330.081 28.04C327.734 25.5333 324.881 24.28 321.521 24.28ZM376.704 55H370.304V35.96C370.304 32.2267 369.504 29.3467 367.904 27.32C366.304 25.2933 364.011 24.28 361.024 24.28C354.784 24.28 351.664 28.28 351.664 36.28V55H345.264V34.52C345.264 29.56 346.704 25.56 349.584 22.52C352.464 19.48 356.304 17.96 361.104 17.96C365.797 17.96 369.557 19.48 372.384 22.52C375.264 25.5067 376.704 29.48 376.704 34.44V55Z" fill="black"/>
    </svg>
    